<?xml version="1.0" encoding="utf-8"?>
<!-- Generator: Adobe Illustrator 25.4.1, SVG Export Plug-In . SVG Version: 6.00 Build 0)  -->
<svg version="1.0" id="katman_1" xmlns="http://www.w3.org/2000/svg" xmlns:xlink="http://www.w3.org/1999/xlink" x="0px" y="0px"
	 viewBox="0 0 841.9 595.3" style="enable-background:new 0 0 841.9 595.3;" xml:space="preserve">
<style type="text/css">
	.st0{fill-rule:evenodd;clip-rule:evenodd;fill:url(#形状结合_00000134212618700421448730000011338924482125461139_);}
	.st1{fill-rule:evenodd;clip-rule:evenodd;fill:url(#形状结合_00000031904887120597578350000003023081141197424572_);}
	.st2{fill-rule:evenodd;clip-rule:evenodd;fill:url(#形状结合_00000157989887086960540390000014490314837483191219_);}
	.st3{opacity:0.2563;fill-rule:evenodd;clip-rule:evenodd;fill:#FFFFFF;enable-background:new    ;}
	.st4{fill-rule:evenodd;clip-rule:evenodd;fill:#6C709F;}
	.st5{fill-rule:evenodd;clip-rule:evenodd;fill:#FFFFFF;}
	.st6{fill-rule:evenodd;clip-rule:evenodd;fill:#D8D8D8;}
	.st7{fill-rule:evenodd;clip-rule:evenodd;fill:#B4B4B6;}
	.st8{fill-rule:evenodd;clip-rule:evenodd;fill:url(#形状_00000171683572918283287700000000565013806507529870_);}
</style>
<g id="partners_x2F_aave_x5F_logo">
	<g id="dapps_x2F_A_x2F_aave" transform="translate(18.250000, 19.456835)">
		<g id="编组-7">
			
				<linearGradient id="形状结合_00000075870095145293869870000004195546922528784291_" gradientUnits="userSpaceOnUse" x1="-10.4438" y1="565.371" x2="-12.9466" y2="561.6041" gradientTransform="matrix(18.5131 0 0 -21.2068 345.2965 12219.0088)">
				<stop  offset="0" style="stop-color:#B67AB3"/>
				<stop  offset="1" style="stop-color:#3BB2C5"/>
			</linearGradient>
			
				<path id="形状结合" style="fill-rule:evenodd;clip-rule:evenodd;fill:url(#形状结合_00000075870095145293869870000004195546922528784291_);" d="
				M122.3,207.2c26.8,0,48.5,21.7,48.5,48.5v62.6h-97v-62.6C73.8,228.9,95.5,207.2,122.3,207.2z M102.9,242.7
				c-5.6,0-10.1,4.5-10.1,10.1c0,5.6,4.5,10.1,10.1,10.1s10.1-4.5,10.1-10.1C113,247.2,108.5,242.7,102.9,242.7z M138.7,242.7
				c-5.6,0-10.1,4.5-10.1,10.1c0,5.6,4.5,10.1,10.1,10.1s10.1-4.5,10.1-10.1C148.8,247.2,144.3,242.7,138.7,242.7z"/>
			
				<linearGradient id="形状结合_00000105417378114076801690000013031826810697465997_" gradientUnits="userSpaceOnUse" x1="-10.1757" y1="564.913" x2="-13.1215" y2="561.2344" gradientTransform="matrix(18.5131 0 0 -20.6426 345.2965 11894.9551)">
				<stop  offset="0" style="stop-color:#A669A9"/>
				<stop  offset="1" style="stop-color:#3BB2C5"/>
			</linearGradient>
			
				<path id="形状结合_00000028290407386691598540000005125422026444604817_" style="fill-rule:evenodd;clip-rule:evenodd;fill:url(#形状结合_00000105417378114076801690000013031826810697465997_);" d="
				M122.3,213.7c26.8,0,48.5,16.7,48.5,58.8v49.4h-97v-67.1C73.8,229.2,95.5,213.7,122.3,213.7z M102.9,242.7
				c-5.6,0-10.1,4.5-10.1,10.1c0,5.6,4.5,10.1,10.1,10.1s10.1-4.5,10.1-10.1C113,247.2,108.5,242.7,102.9,242.7z M138.7,242.7
				c-5.6,0-10.1,4.5-10.1,10.1c0,5.6,4.5,10.1,10.1,10.1s10.1-4.5,10.1-10.1C148.8,247.2,144.3,242.7,138.7,242.7z"/>
			
				<linearGradient id="形状结合_00000000942214718155346230000006984960089903434392_" gradientUnits="userSpaceOnUse" x1="-10.6582" y1="565.832" x2="-12.9668" y2="563.5793" gradientTransform="matrix(18.5131 0 0 -24.943 345.2965 14375.2393)">
				<stop  offset="0" style="stop-color:#9E60A4"/>
				<stop  offset="1" style="stop-color:#3BB2C5"/>
			</linearGradient>
			
				<path id="形状结合_00000013187205682451620770000018252208150437035422_" style="fill-rule:evenodd;clip-rule:evenodd;fill:url(#形状结合_00000000942214718155346230000006984960089903434392_);" d="
				M122.3,218.4c26.8,0,48.5,16.1,48.5,56.7v68.5c0,3.1-2.5,5.5-5.5,5.5c-3.1,0-5.5-2.5-5.5-5.5v-15.4c0-2.8-2.4-5-5.4-5.1l-0.1,0
				c-3,0-5.5,2.2-5.5,5l0,6.9c0,2.9-2.3,5.2-5.2,5.2s-5.2-2.3-5.2-5.2v-6.8c0-2.8-2.4-5-5.4-5.1l-0.1,0c-3,0-5.5,2.2-5.5,5l0,1.4
				c0,2.9-2.3,5.2-5.2,5.2c-2.9,0-5.2-2.3-5.2-5.2v-1.3c0-2.8-2.4-5-5.4-5.1l-0.1,0c-3,0-5.5,2.2-5.5,5l0,6.9c0,2.9-2.3,5.2-5.2,5.2
				c-2.9,0-5.2-2.3-5.2-5.2v-6.8c0-2.8-2.4-5-5.4-5.1l-0.1,0c-3,0-5.5,2.2-5.5,5l0,0.1v15.7c0,2.9-2.3,5.2-5.2,5.2
				c-2.9,0-5.2-2.3-5.2-5.2v-85.8C73.8,233.4,95.5,218.4,122.3,218.4z M102.9,242.7c-5.6,0-10.1,4.5-10.1,10.1
				c0,5.6,4.5,10.1,10.1,10.1s10.1-4.5,10.1-10.1C113,247.2,108.5,242.7,102.9,242.7z M138.7,242.7c-5.6,0-10.1,4.5-10.1,10.1
				c0,5.6,4.5,10.1,10.1,10.1s10.1-4.5,10.1-10.1C148.8,247.2,144.3,242.7,138.7,242.7z"/>
			<path id="矩形_00000087373663976391299050000001741905913303688098_" class="st3" d="M79,266.9L79,266.9c1.4,0,2.6,1.2,2.6,2.6
				v11.7c0,1.4-1.2,2.6-2.6,2.6l0,0c-1.4,0-2.6-1.2-2.6-2.6v-11.7C76.4,268.1,77.5,266.9,79,266.9z"/>
			<path id="矩形_00000127022619616966656360000012404852454932866750_" class="st3" d="M167.5,283.8L167.5,283.8
				c1.4,0,2.6,1.2,2.6,2.6v21.9c0,1.4-1.2,2.6-2.6,2.6l0,0c-1.4,0-2.6-1.2-2.6-2.6v-21.9C164.9,285,166.1,283.8,167.5,283.8z"/>
			<path id="矩形_00000178925128533087927950000002482887950336933542_" class="st3" d="M167.5,272.5L167.5,272.5
				c1.4,0,2.6,1.2,2.6,2.6v2.4c0,1.4-1.2,2.6-2.6,2.6l0,0c-1.4,0-2.6-1.2-2.6-2.6v-2.4C164.9,273.6,166.1,272.5,167.5,272.5z"/>
			<path id="椭圆形" class="st4" d="M122.5,278.7c4.4,0,7.7-3.6,7.7-6.1c0-1-0.6-1.9-1.5-2c-1.4-0.2-3.5,0.6-6.2,0.6
				c-2.5,0-4.1-0.7-6-0.7c-2,0-1.9,2.3-1.6,3.2C115.6,276.2,118,278.7,122.5,278.7z"/>
			<path id="椭圆形_00000045604796312125145480000010846066817034338977_" class="st5" d="M122.6,276.6c4.5,0,7.8-3.3,7.8-5.7
				c0-0.9-0.6-1.7-1.5-1.8c-1.4-0.2-3.6,0.6-6.3,0.6c-2.6,0-4.1-0.7-6.1-0.7c-2,0-1.9,2.2-1.6,3
				C115.6,274.3,118.1,276.6,122.6,276.6z"/>
			<path id="形状结合_00000072968610169985233630000003527479462174072753_" class="st6" d="M104.4,241c5.1,0,9.3,5.1,9.3,11.4
				s-4.2,11.4-9.3,11.4s-9.3-5.1-9.3-11.4S99.2,241,104.4,241z M104.4,242.2c-4.6,0-8.3,4.6-8.3,10.2c0,5.6,3.7,10.2,8.3,10.2
				s8.3-4.6,8.3-10.2C112.7,246.8,108.9,242.2,104.4,242.2z"/>
			<path id="形状结合_00000024724490712294057940000017922779663802505107_" class="st6" d="M140.3,241c5.1,0,9.3,5.1,9.3,11.4
				s-4.2,11.4-9.3,11.4c-5.1,0-9.3-5.1-9.3-11.4S135.2,241,140.3,241z M140.3,242.2c-4.6,0-8.3,4.6-8.3,10.2
				c0,5.6,3.7,10.2,8.3,10.2s8.3-4.6,8.3-10.2C148.6,246.8,144.9,242.2,140.3,242.2z"/>
			<path id="形状结合_00000039824189236739396160000011856185526362921861_" class="st7" d="M104.4,242.2
				c4.6,0,8.3,4.6,8.3,10.2c0,0.2,0,0.4,0,0.6l0,0.6c0-5.7-3.6-10.4-8.1-10.4s-8.1,4.6-8.1,10.4c0,1.1,0.1,2.2,0.4,3.2
				c-0.5-1.3-0.8-2.8-0.8-4.3C96.1,246.8,99.8,242.2,104.4,242.2z"/>
			<path id="形状结合_00000178919283641956715710000008725083427621170319_" class="st7" d="M140.3,242.2
				c4.6,0,8.3,4.6,8.3,10.2c0,0.2,0,0.4,0,0.6l0,0.6c0-5.7-3.6-10.4-8.1-10.4s-8.1,4.6-8.1,10.4c0,1.1,0.1,2.2,0.4,3.2
				c-0.5-1.3-0.8-2.8-0.8-4.3C132,246.8,135.7,242.2,140.3,242.2z"/>
		</g>
		
			<linearGradient id="形状_00000024706252058797304530000005554725919119362484_" gradientUnits="userSpaceOnUse" x1="-10.4696" y1="565.9925" x2="-15.6535" y2="565.9925" gradientTransform="matrix(97.4832 0 0 -27.0863 1735.5184 15608.7979)">
			<stop  offset="0" style="stop-color:#AD579D"/>
			<stop  offset="1" style="stop-color:#36B3C2"/>
		</linearGradient>
		
			<path id="形状" style="fill-rule:evenodd;clip-rule:evenodd;fill:url(#形状_00000024706252058797304530000005554725919119362484_);" d="
			M435.3,207.2c5.4,0.1,10.1,3.5,12,8.4l0.3,0.8l49.5,120c0.4,0.9,0.6,1.8,0.6,2.7l0,0.7c0.1,2.4-0.7,4.8-2.4,6.7
			c-1.7,1.8-4.1,2.7-6.6,2.6c-1.8,0-3.6-0.6-5.1-1.7c-1.3-1-2.3-2.2-3.1-3.6l-0.4-0.9l-47.1-117.4l-17.4,43.1h8.4
			c4.6,0,8.4,3.6,8.8,8.2l0,0.7v0.2c0,4.6-3.6,8.4-8.1,8.9l-0.7,0h-15.6l-22.7,56.3c-0.7,1.8-2,3.3-3.5,4.5
			c-1.5,1.1-3.3,1.7-5.1,1.7c-2.5,0.1-4.9-0.8-6.6-2.6c-1.6-1.8-2.5-4.2-2.4-6.7c0-0.9,0.1-1.7,0.4-2.6l0.3-0.8l20.5-49.9h-8.8
			c-4.6,0-8.4-3.6-8.8-8.2l0-0.8c0-4.6,3.6-8.4,8.1-8.9l0.7,0H397l21.5-52.3c1.6-5.1,6.2-8.7,11.5-9.2l0.9,0H435.3z M287.4,207.2
			c5.4,0.1,10.2,3.4,12.1,8.4l0.3,0.8l49.5,120c0.3,0.8,0.5,1.7,0.6,2.5l0,1.7c-0.1,2.2-0.9,4.2-2.4,5.9c-1.7,1.8-4.1,2.7-6.6,2.6
			c-1.8,0-3.6-0.6-5.1-1.7c-1.3-1-2.3-2.2-3.1-3.6l-0.4-0.9l-47.1-117.4L268,268.6h8.4c4.7,0,8.5,3.6,8.9,8.2l0,0.7v0.2
			c0,4.7-3.6,8.5-8.2,8.9l-0.7,0h-15.7L238,342.9c-0.7,1.8-2,3.3-3.5,4.5c-1.5,1.1-3.3,1.7-5.1,1.7c-2.5,0.1-4.9-0.8-6.6-2.6
			c-1.6-1.8-2.5-4.2-2.4-6.7c0-0.9,0.1-1.7,0.4-2.6l0.3-0.8l20.5-49.9h-8.8c-4.6,0-8.4-3.6-8.8-8.2l0-0.8c0-4.6,3.6-8.4,8.1-8.9
			l0.7,0h16.3l21.5-52.3c1.6-5.1,6.2-8.7,11.5-9.2l0.9,0H287.4z M494.3,207.2c1.8,0,3.6,0.6,5.1,1.7c1.5,1.2,2.8,2.7,3.5,4.5
			L550,330.8l47.1-117.4c0.8-1.8,2-3.3,3.5-4.5c1.5-1.1,3.3-1.7,5.1-1.7c2.4-0.1,4.8,0.8,6.5,2.6c1.7,1.8,2.5,4.2,2.5,6.7
			c0,1.2-0.2,2.3-0.6,3.4l-49.5,120c-1.7,5.4-6.7,9.1-12.4,9.2h-4.4c-5.7-0.1-10.7-3.8-12.4-9.2l-49.5-120c-0.4-1.1-0.6-2.2-0.6-3.4
			c-0.1-2.5,0.8-4.8,2.4-6.7C489.5,208,491.9,207,494.3,207.2z M722.6,208.1c2.3-0.1,4.5,0.9,6.1,2.6c1.7,1.6,2.6,3.8,2.6,6.1
			c0.1,2.3-0.9,4.4-2.6,6c-1.6,1.6-3.8,2.5-6.1,2.5h-71.1v44.3h63.9c2.3-0.1,4.5,0.9,6.1,2.6c1.6,1.6,2.6,3.8,2.6,6.1
			c0.1,2.3-0.9,4.4-2.6,6c-1.6,1.6-3.8,2.5-6.1,2.5h-63.9v44.5h71.1c2.3-0.1,4.5,0.9,6.1,2.6c1.7,1.6,2.6,3.8,2.6,6.1
			c0.1,2.3-0.9,4.4-2.6,6c-1.6,1.6-3.8,2.5-6.1,2.4h-80.4c-2.4,0.2-4.8-0.8-6.4-2.6c-1.7-1.7-2.6-4-2.6-6.4V217.4
			c-0.1-2.5,0.9-4.8,2.6-6.6c1.7-1.8,4-2.7,6.4-2.6H722.6z"/>
	</g>
</g>
</svg>
