<svg xmlns="http://www.w3.org/2000/svg" xmlns:xlink="http://www.w3.org/1999/xlink" viewBox="0 0 400 149.31"><defs><style>.cls-1{opacity:0;}.cls-2{fill:url(#radial-gradient);}.cls-3{opacity:0.7;isolation:isolate;fill:url(#linear-gradient);}.cls-4{fill:url(#linear-gradient-2);}.cls-5{fill:#fff;fill-rule:evenodd;}</style><radialGradient id="radial-gradient" cx="1496.96" cy="189.9" r="0.72" gradientTransform="matrix(-144.9, 32.65, 39.12, 173.61, 209575.35, -81815.94)" gradientUnits="userSpaceOnUse"><stop offset="0" stop-color="#fff"/><stop offset="0.12" stop-color="#fff" stop-opacity="0.95"/><stop offset="1" stop-color="#fff" stop-opacity="0"/></radialGradient><linearGradient id="linear-gradient" x1="83.11" y1="-453.16" x2="83.11" y2="-513.63" gradientTransform="matrix(1, 0, 0, -1, 0, -390.65)" gradientUnits="userSpaceOnUse"><stop offset="0" stop-color="#fff"/><stop offset="1" stop-color="#fff" stop-opacity="0.5"/></linearGradient><linearGradient id="linear-gradient-2" x1="97.49" y1="-451.69" x2="97.49" y2="-539.45" gradientTransform="matrix(1, 0, 0, -1, 0, -390.65)" gradientUnits="userSpaceOnUse"><stop offset="0" stop-color="#fff"/><stop offset="1" stop-color="#fff" stop-opacity="0"/></linearGradient></defs><title>Asset 49</title><g id="Layer_2" data-name="Layer 2"><g id="Layer_1-2" data-name="Layer 1"><rect class="cls-1" width="400" height="149.31"/><path class="cls-2" d="M109.58,54.47A2.26,2.26,0,0,1,107,56.63a44.15,44.15,0,0,0-9.19,0c-6.17.64-11.3,2.55-16,4.3h0l-.85.31c-5,1.86-9.66,3.46-15.15,3.58a31.82,31.82,0,0,1-7.15-.65,5.62,5.62,0,0,1-4.45-4.38,28,28,0,1,1,55.42-5.47Z"/><path class="cls-3" d="M56.11,68.37a2.62,2.62,0,0,0-3,3.65l27.46,50.35a1.17,1.17,0,0,0,2,0L113,66.8a3.3,3.3,0,0,0-2.16-4.88,41,41,0,0,0-12.5-.68c-5.58.58-10.21,2.29-15,4.07l-.77.29c-5,1.86-10.31,3.72-16.65,3.87A37.48,37.48,0,0,1,56.11,68.37Z"/><path class="cls-4" d="M81.6,66.91a1.4,1.4,0,0,1,.91-1.31l.77-.29c4.8-1.78,9.43-3.49,15-4.07a41,41,0,0,1,12.5.68A3.3,3.3,0,0,1,113,66.8L82.64,122.37a1.14,1.14,0,0,1-1,.61Z"/><path class="cls-5" d="M170.4,47.87a26.5,26.5,0,0,0-7.33-1.1A26.81,26.81,0,0,0,151,49.7a20.72,20.72,0,0,0-8.42,8.43,25,25,0,0,0-2.93,12.45A25.15,25.15,0,0,0,142.74,83a22,22,0,0,0,8.43,8.43,22.89,22.89,0,0,0,11.72,3.11,22.15,22.15,0,0,0,11-2.56,18.72,18.72,0,0,0,7.87-7.69,23.83,23.83,0,0,0,2.93-12.27V69.17h0V68.6a.58.58,0,0,0-.58-.58H164.75a.58.58,0,0,0-.58.58v7.08a.58.58,0,0,0,.58.58h9a.38.38,0,0,1,.38.44,14.25,14.25,0,0,1-.79,2.85,8.26,8.26,0,0,1-3.85,4.4,13.45,13.45,0,0,1-6.59,1.47,12.35,12.35,0,0,1-6.23-1.84,12.48,12.48,0,0,1-4.58-5.12,17,17,0,0,1-1.65-7.7,17,17,0,0,1,1.65-7.69,11.43,11.43,0,0,1,4.58-5.13,12,12,0,0,1,6.59-1.83,14.11,14.11,0,0,1,6.23,1.47,12.22,12.22,0,0,1,4.43,4.08.61.61,0,0,0,.83.16L181.85,57a.57.57,0,0,0,.17-.77,18.73,18.73,0,0,0-4.85-5A23.13,23.13,0,0,0,170.4,47.87Zm58.66,1.48,8.17-2.15a.77.77,0,0,1,1,.74V93.07a.76.76,0,0,1-.77.77h-8.17a.77.77,0,0,1-.77-.77v-43A.78.78,0,0,1,229.06,49.35Zm96.41,19a7.85,7.85,0,0,1,4-1.1,8.73,8.73,0,0,1,4,1.1,6.67,6.67,0,0,1,2.74,3.12,12.49,12.49,0,0,1,0,10.25,6.12,6.12,0,0,1-2.74,3.3,7.93,7.93,0,0,1-8.06,0,8.23,8.23,0,0,1-2.75-3.3,12.49,12.49,0,0,1,0-10.25A6.45,6.45,0,0,1,325.47,68.38Zm13.18-7.51a18.33,18.33,0,0,0-9.15-2.19,19.39,19.39,0,0,0-9.16,2.19,16.66,16.66,0,0,0-6.41,6.41,17.73,17.73,0,0,0-2.38,9.34A19.55,19.55,0,0,0,313.93,86a15.36,15.36,0,0,0,6.41,6.41,20.15,20.15,0,0,0,18.31,0A16.46,16.46,0,0,0,345.06,86a17.71,17.71,0,0,0,2.38-9.34,19.58,19.58,0,0,0-2.38-9.34A15.47,15.47,0,0,0,338.65,60.87ZM269.41,90.23a.12.12,0,0,1,.21,0v3a.58.58,0,0,0,.58.58h8.54a.58.58,0,0,0,.58-.58V60.36a.58.58,0,0,0-.58-.59H270.2a.58.58,0,0,0-.58.59v3.33a.21.21,0,0,1-.37.12,14,14,0,0,0-1.83-2,10.91,10.91,0,0,0-8.06-2.93,13.32,13.32,0,0,0-7.88,2.38,15.49,15.49,0,0,0-5.31,6.41,21.58,21.58,0,0,0-1.83,9.16A21.54,21.54,0,0,0,246.17,86a15.14,15.14,0,0,0,5.31,6.41,13,13,0,0,0,7.88,2.39,14.19,14.19,0,0,0,8.24-2.57A6.3,6.3,0,0,0,269.41,90.23ZM266,84.87a8,8,0,0,1-8.06,0,8.43,8.43,0,0,1-2.74-3.3,14,14,0,0,1-.92-4.95,10,10,0,0,1,.92-4.76,9.15,9.15,0,0,1,2.74-3.11,7.91,7.91,0,0,1,4-1.1,7.4,7.4,0,0,1,4,1.1,7.67,7.67,0,0,1,2.75,3.11,12.23,12.23,0,0,1,.92,4.76,10.89,10.89,0,0,1-.92,4.95A8.37,8.37,0,0,1,266,84.87Zm34.62-17.59a.2.2,0,0,0-.19.2V80.65c0,3.12,1.28,4.77,3.85,4.77h3.08a.58.58,0,0,1,.58.58v7.26a.58.58,0,0,1-.58.58h-4.37c-3.84,0-7-1.1-9-3.3q-3.3-3.29-3.3-9.34V67.48a.19.19,0,0,0-.19-.2h-6a.58.58,0,0,1-.55-.76l2.16-6.35a.58.58,0,0,1,.55-.4h3.83a.18.18,0,0,0,.19-.19V50.21a.57.57,0,0,1,.44-.56l8.78-2.32a.39.39,0,0,1,.49.38V59.58a.19.19,0,0,0,.19.19h7a.58.58,0,0,1,.55.77L306,66.89a.57.57,0,0,1-.55.39Zm-94.35-8.6a15.64,15.64,0,0,1,8.42,2.19,15,15,0,0,1,5.68,6.41,19.52,19.52,0,0,1,2,9.34v1.8a.57.57,0,0,1-.58.58H199.69a.38.38,0,0,0-.38.44,10.79,10.79,0,0,0,.68,2.5,6.65,6.65,0,0,0,2.75,3.11,9.62,9.62,0,0,0,4.39,1.1,10.42,10.42,0,0,0,4.4-.92,7.81,7.81,0,0,0,2.92-2.43.6.6,0,0,1,.85-.11l5.86,4.75a.57.57,0,0,1,.1.8,14.9,14.9,0,0,1-5.89,4.5,20.66,20.66,0,0,1-8.24,1.65,19.49,19.49,0,0,1-9.34-2.2,15,15,0,0,1-6.23-6.41,21,21,0,0,1,0-18.68,17,17,0,0,1,6.05-6.41A18.66,18.66,0,0,1,206.22,58.68Zm-6.33,13.91a.38.38,0,0,1-.37-.46,10.27,10.27,0,0,1,1.38-3.38,6.05,6.05,0,0,1,5.32-2.57,5.93,5.93,0,0,1,5.12,2.57,10.31,10.31,0,0,1,1.36,3.38.37.37,0,0,1-.37.46Z"/></g></g></svg>